<svg id="Layer_3" enable-background="new 0 0 64 64" height="512" viewBox="0 0 64 64" width="512" xmlns="http://www.w3.org/2000/svg"><path d="m18 10-4-4h-5v-4h7l5 5z" fill="#ed6863"/><path d="m14.636 7.879h12.728v4.243h-12.728z" fill="#b24e4a" transform="matrix(.707 -.707 .707 .707 -.92 17.778)"/><path d="m55 4v56c0 1.105-.895 2-2 2h-38c-1.105 0-2-.895-2-2v-39l19-19h21c1.105 0 2 .895 2 2z" fill="#b24e4a"/><path d="m52 60v-56c0-1.105-.895-2-2-2h-18l-19 19v39c0 1.105.895 2 2 2h35c1.105 0 2-.895 2-2z" fill="#ed6863"/><path d="m13 24h42v32h-42z" fill="#9db5be"/><path d="m13 24h39v32h-39z" fill="#d1f2fd"/><path d="m27.688 49.11c-1.093-1.366-1.688-3.063-1.688-4.812 0-2.157.598-4.271 1.729-6.108l6.271-10.19 6.271 10.191c1.131 1.837 1.729 3.951 1.729 6.107 0 1.749-.595 3.446-1.688 4.811-1.461 1.827-3.674 2.891-6.014 2.891h-.597c-2.339 0-4.552-1.064-6.013-2.89z" fill="#b24e4a"/><path d="m32.5 30.437-4.771 7.753c-1.131 1.838-1.729 3.952-1.729 6.108 0 1.749.595 3.445 1.688 4.811 1.208 1.51 2.931 2.487 4.812 2.785 1.881-.298 3.605-1.275 4.812-2.785 1.093-1.365 1.688-3.062 1.688-4.811 0-2.157-.598-4.271-1.729-6.108z" fill="#ed6863"/><path d="m49 14h-12c-1.105 0-2-.895-2-2v-4c0-1.105.895-2 2-2h12c1.105 0 2 .895 2 2v4c0 1.105-.895 2-2 2z" fill="#fff"/><path d="m53 63h-38c-1.654 0-3-1.346-3-3v-39c0-.265.105-.52.293-.707l19-19c.187-.188.442-.293.707-.293h21c1.654 0 3 1.346 3 3v56c0 1.654-1.346 3-3 3zm-39-41.586v38.586c0 .551.449 1 1 1h38c.551 0 1-.449 1-1v-56c0-.551-.449-1-1-1h-20.586z"/><path d="m49 15h-12c-1.654 0-3-1.346-3-3v-4c0-1.654 1.346-3 3-3h12c1.654 0 3 1.346 3 3v4c0 1.654-1.346 3-3 3zm-12-8c-.551 0-1 .449-1 1v4c0 .551.449 1 1 1h12c.551 0 1-.449 1-1v-4c0-.551-.449-1-1-1z"/><path d="m17.293 16.707-3-3c-.391-.391-.391-1.023 0-1.414l9-9c.391-.391 1.023-.391 1.414 0l3 3-1.414 1.414-2.293-2.293-7.586 7.586 2.293 2.293z"/><path d="m17.293 10.707-3.707-3.707h-4.586c-.552 0-1-.448-1-1v-4c0-.552.448-1 1-1h7c.265 0 .52.105.707.293l5 5-1.414 1.414-4.707-4.707h-5.586v2h4c.265 0 .52.105.707.293l4 4z"/><path d="m13 23h42v2h-42z"/><path d="m13 55h42v2h-42z"/><path d="m34.298 53h-.597c-2.658 0-5.134-1.19-6.795-3.266-1.229-1.537-1.906-3.467-1.906-5.436 0-2.343.649-4.636 1.877-6.631l6.271-10.191c.364-.592 1.339-.592 1.703 0l6.271 10.191c1.229 1.996 1.878 4.289 1.878 6.631 0 1.969-.677 3.899-1.907 5.436-1.66 2.076-4.137 3.266-6.795 3.266zm-5.83-4.515c1.28 1.598 3.187 2.515 5.234 2.515h.597c2.047 0 3.954-.917 5.233-2.515.947-1.184 1.468-2.671 1.468-4.187 0-1.973-.546-3.903-1.58-5.583l-5.42-8.807-5.42 8.807c-1.034 1.68-1.58 3.611-1.58 5.583 0 1.516.521 3.003 1.468 4.187z"/><path d="m34 49v-2c1.654 0 3-1.346 3-3h2c0 2.757-2.243 5-5 5z"/></svg>